# xmcd
#
# Track frame offsets:
#	150
#	16756
#	30728
#	46184
#	65387
#	86450
#	103585
#	120761
#	133897
#	149429
#	166891
#
# Disc length: 2462 seconds
#
# Revision: 1
# Processed by: cddbd v1.5.2PL0 Copyright (c) Steve Scherf et al.
# Submitted via: audiograbber 1.82.02
#
DISCID=85099c0b
DTITLE=Martina Mcbride - Waking Up Laughing
DYEAR=2007
DGENRE=Country
TTITLE0=If I Had Your Name
TTITLE1=Cry Cry ('til The Sun Shines)
TTITLE2=Tryin' To Find A Reason
TTITLE3=For These Times
TTITLE4=Anyway
TTITLE5=How I Feel
TTITLE6=I'll Still Be Me
TTITLE7=Beautiful Again
TTITLE8=Everybody Does
TTITLE9=House Of A Thousand Dreams
TTITLE10=Love Land
EXTD=Summited By Dream`Master On Mircs Phazenet
EXTT0=
EXTT1=
EXTT2=
EXTT3=
EXTT4=
EXTT5=
EXTT6=
EXTT7=
EXTT8=
EXTT9=
EXTT10=
PLAYORDER=
